<svg width="30" height="34" viewBox="0 0 30 34" fill="none" xmlns="http://www.w3.org/2000/svg">
<path d="M25.636 15.3917C25.636 9.52653 20.8645 4.75479 14.9996 4.75479C9.13475 4.75479 4.36328 9.52653 4.36328 15.3917C4.36328 21.257 9.13475 26.0287 14.9996 26.0287C20.8645 26.0287 25.636 21.257 25.636 15.3917Z" fill="#323593"/>
<path d="M14.9993 0.5C6.78804 0.5 0.108398 7.18001 0.108398 15.3917V19.6465C0.108398 20.0387 0.426072 20.3557 0.81749 20.3557H2.23567C2.62709 20.3557 2.94477 20.0387 2.94477 19.6465V15.3917C2.94477 15.0003 2.62709 14.6826 2.23567 14.6826C1.84426 14.6826 1.52658 15.0003 1.52658 15.3917C1.52658 7.96218 7.57017 1.91826 14.9993 1.91826C22.4285 1.91826 28.4721 7.96218 28.4721 15.3917C28.4721 15.0003 28.1551 14.6826 27.763 14.6826C27.3709 14.6826 27.0539 15.0003 27.0539 15.3917V19.6465C27.0539 20.0387 27.3709 20.3557 27.763 20.3557H28.4721V24.9402L20.4572 30.2835H18.4136C18.12 29.4602 17.34 28.8652 16.4175 28.8652H13.5811C12.4083 28.8652 11.4539 29.8197 11.4539 30.9926C11.4539 32.1655 12.4083 33.12 13.5811 33.12H16.4175C17.3408 33.12 18.12 32.525 18.4136 31.7017H20.6721C20.8118 31.7017 20.9493 31.6599 21.0656 31.5826L29.5747 25.9096C29.7718 25.7777 29.8903 25.5564 29.8903 25.3196V15.3917C29.8903 7.18001 23.2099 0.5 14.9993 0.5Z" fill="#323593"/>
</svg>
