<svg width="24" height="33" viewBox="0 0 24 33" fill="none" xmlns="http://www.w3.org/2000/svg">
<path fill-rule="evenodd" clip-rule="evenodd" d="M11.5294 0C5.16357 0 0 5.12288 0 10.485C0 12.6928 0.411765 17.0867 5.76471 20.1933L11.5294 29.5133L17.2941 20.1933C22.6471 17.0867 23.0588 12.6928 23.0588 10.485C23.0588 5.12288 17.8953 0 11.5294 0ZM11.5294 5.06047C14.9366 5.06047 17.7059 7.656 17.7059 10.8733C17.7059 14.0907 14.9366 16.6862 11.5294 16.6862C8.12225 16.6862 5.36581 14.0907 5.36581 10.8733C5.36581 7.656 8.12225 5.06047 11.5294 5.06047ZM7.69486 26.3945C5.079 26.9475 3.29412 28.0514 3.29412 29.3192C3.29412 31.1422 6.98119 32.62 11.5294 32.62C16.0777 32.62 19.7647 31.1422 19.7647 29.3192C19.7647 28.0514 17.9798 26.9475 15.364 26.3945L12.9577 30.29C12.6639 30.7723 12.1192 31.0696 11.5294 31.0696C10.9397 31.0696 10.3949 30.7723 10.1011 30.29L7.69486 26.3945Z" fill="#323593"/>
</svg>
