<svg xmlns="http://www.w3.org/2000/svg" width="698" height="532" fill="none" viewBox="0 0 698 532"><path fill="#323593" d="M629.756 366.273C625.625 376.22 620.206 385.755 612.621 393.069C603.38 401.979 591.903 406.84 579.614 409.164C575.992 409.839 572.334 410.312 568.659 410.581C558.948 411.328 549.004 410.832 539.467 409.795C516.106 407.247 493.067 402.322 470.708 395.097C467.034 393.912 463.383 392.665 459.753 391.356C454.275 389.39 448.847 387.285 443.468 385.04C421.558 375.891 398.907 364.225 375.598 367.844C364.302 369.601 353.688 374.926 342.366 376.51C334.418 377.548 326.343 376.97 318.625 374.81C314.889 373.811 311.228 372.548 307.67 371.031C299.654 367.558 292.025 363.253 284.909 358.186C267.832 346.263 252.508 331.48 234.529 321.153C214.707 309.764 192.764 304.35 170.409 300.313C166.771 299.656 163.119 299.029 159.454 298.433C149.111 296.727 138.743 295.149 128.522 293.282C118.676 291.467 108.655 289.245 100.084 283.786C93.9687 279.891 88.8263 274.495 84.1091 268.81C75.4074 258.276 67.9436 246.779 61.8639 234.546C61.5417 233.902 61.2259 233.258 60.9166 232.614C51.4501 213.209 45.0833 192.053 41.1781 170.163C41.0621 169.519 40.9525 168.876 40.843 168.232C37.1698 146.773 35.8294 124.587 36.2354 102.561L36.2741 100.63C36.5254 89.7558 37.202 78.9266 38.2073 68.252C38.9291 60.745 39.8957 52.9547 43.788 46.6452C47.6803 40.3357 54.0149 36.2796 60.3559 32.906C88.2592 18.0529 115.009 13.9195 145.026 21.1175C149.846 22.2699 154.647 23.5125 159.448 24.8002C163.102 25.7788 166.756 26.7896 170.403 27.8069C195.625 34.8181 220.758 42.2929 246.844 44.527C249.361 44.7459 251.881 44.9133 254.403 45.0292C259.391 45.261 264.378 45.3125 269.366 45.1837C282.214 44.8234 295.018 43.5064 307.67 41.2435C311.331 40.6126 314.982 39.9129 318.625 39.1446C334.349 35.8676 349.931 31.496 365.262 26.6608C368.394 25.6736 371.521 24.6693 374.644 23.6477C381.681 21.3493 388.719 19.0057 395.768 16.7266C416.815 9.91492 437.991 3.68912 459.753 1.1782C461.613 0.967884 463.477 0.781175 465.346 0.618072C467.131 0.463554 468.923 0.341227 470.708 0.251091C504.507 -1.55162 538.694 6.59278 568.659 23.2614C572.375 25.3303 576.027 27.5279 579.614 29.8542C584.585 33.0862 589.403 36.5629 594.068 40.2842C603.632 47.9135 612.582 56.5988 619.4 67.0352C626.044 77.2012 630.355 88.6162 632.836 100.617C632.972 101.261 633.101 101.905 633.217 102.549C636.858 121.921 635.723 142.698 631.638 162.109C631.206 164.143 630.749 166.184 630.272 168.219C630.123 168.863 629.969 169.507 629.814 170.15C625.406 188.506 619.774 206.81 621.243 225.577C621.43 227.94 621.727 230.284 622.113 232.602C622.223 233.245 622.332 233.889 622.455 234.533C625.329 249.843 631.863 264.368 635.781 279.53C643.136 308.342 641.024 338.752 629.756 366.273Z" opacity=".1"/><path fill="#323593" d="M579.614 102.549H633.217C633.101 101.905 632.972 101.261 632.836 100.617H579.614V29.8542C576.031 27.5279 572.379 25.3303 568.659 23.2614V100.617H470.708V0.251091C468.923 0.341227 467.131 0.463553 465.346 0.618072C463.561 0.77259 461.615 0.965737 459.753 1.1782V100.617H319.914L319.579 100.25L395.768 16.7266C388.719 19.0057 381.682 21.3493 374.645 23.6477L318.625 85.0881V39.1446C314.978 39.9086 311.326 40.6083 307.67 41.2435V87.1805L269.366 45.1708C264.378 45.291 259.391 45.2395 254.403 45.0163L304.77 100.237L304.435 100.604H170.397V27.7875C166.749 26.7703 163.095 25.7595 159.442 24.7809V100.617H36.2613L36.2227 102.549H159.454V168.219H40.8302C40.9398 168.863 41.0493 169.507 41.1653 170.15H159.454V232.602H60.9038C61.2131 233.245 61.5289 233.889 61.8511 234.533H159.454V298.439C163.115 299.036 166.766 299.662 170.41 300.319V234.533H307.67V371.024C311.228 372.542 314.889 373.805 318.625 374.803V234.533H459.753V391.35C463.387 392.663 467.039 393.91 470.708 395.09V234.533H568.659V410.574C572.334 410.305 575.992 409.833 579.614 409.158V234.533H622.455C622.333 233.889 622.223 233.245 622.113 232.602H579.582V170.15H629.782C629.937 169.507 630.091 168.863 630.24 168.219H579.614V102.549ZM568.659 102.549V168.219H470.708V102.549H568.659ZM459.753 168.219H318.625V102.549H459.753V168.219ZM170.41 102.549H305.737L307.67 104.306V168.219H170.41V102.549ZM170.41 232.602V170.15H307.67V232.602H170.41ZM318.625 232.602V170.15H459.753V232.602H318.625ZM568.659 232.602H470.708V170.15H568.659V232.602Z" opacity=".1"/><path fill="#323593" d="M521.565 57.3263H520.715C521.014 57.153 521.265 56.9081 521.446 56.6137C521.628 56.3193 521.733 55.9845 521.752 55.6395C521.752 54.3067 520.122 53.2187 518.131 53.2187H492.702C490.711 53.2187 489.074 54.3067 489.074 55.6395C489.074 56.9722 490.711 58.0602 492.702 58.0602H493.552C493.253 58.2331 493.001 58.4779 492.82 58.7724C492.639 59.0669 492.534 59.4019 492.515 59.7471C492.515 60.8802 493.701 61.8331 495.286 62.0906H488.004C486.006 62.0906 484.376 63.1787 484.376 64.5114C484.376 65.8441 486.006 66.9322 488.004 66.9322H513.401C515.398 66.9322 517.029 65.8377 517.029 64.5114C517.029 63.3782 515.836 62.419 514.251 62.1614H521.565C523.557 62.1614 525.187 61.0734 525.187 59.7471C525.187 58.4208 523.557 57.3263 521.565 57.3263Z" opacity=".1"/><path fill="#323593" d="M246.296 80.3495H245.446C245.744 80.1749 245.994 79.9297 246.175 79.6355C246.356 79.3414 246.462 79.0073 246.483 78.6627C246.483 77.3364 244.853 76.2483 242.855 76.2483H217.459C215.461 76.2483 213.83 77.3364 213.83 78.6627C213.83 79.9954 215.461 81.0835 217.459 81.0835H218.303C218.005 81.2584 217.756 81.5038 217.576 81.798C217.396 82.0922 217.292 82.4261 217.272 82.7703C217.272 83.9034 218.457 84.8627 220.043 85.1203H212.729C210.737 85.1203 209.107 86.2083 209.107 87.5346C209.107 88.8609 210.737 89.9554 212.729 89.9554H238.157C240.148 89.9554 241.785 88.8673 241.785 87.5346C241.785 86.4015 240.593 85.4486 239.008 85.1911H246.322C248.313 85.1911 249.944 84.103 249.944 82.7703C249.944 81.4376 248.287 80.3495 246.296 80.3495Z" opacity=".1"/><path fill="#323593" d="M560.527 178.894H559.676C559.974 178.719 560.225 178.474 560.406 178.18C560.587 177.885 560.692 177.551 560.714 177.207C560.714 175.874 559.083 174.786 557.085 174.786H531.689C529.691 174.786 528.061 175.874 528.061 177.207C528.061 178.539 529.691 179.628 531.689 179.628H532.533C532.236 179.802 531.986 180.048 531.807 180.342C531.627 180.636 531.522 180.97 531.502 181.314C531.502 182.447 532.688 183.4 534.273 183.658H526.959C524.968 183.658 523.337 184.746 523.337 186.079C523.337 187.411 524.968 188.499 526.959 188.499H552.362C554.353 188.499 555.99 187.411 555.99 186.079C555.99 184.945 554.798 183.986 553.213 183.729H560.527C562.518 183.729 564.148 182.641 564.148 181.314C564.148 179.988 562.518 178.894 560.527 178.894Z" opacity=".1"/><path fill="#323593" d="M338.692 498.978C489.082 498.978 610.997 485.531 610.997 468.944C610.997 452.356 489.082 438.909 338.692 438.909C188.303 438.909 66.3877 452.356 66.3877 468.944C66.3877 485.531 188.303 498.978 338.692 498.978Z" opacity=".1"/><path fill="#E9CCDB" d="M395.304 255.251V349.701C395.308 351.304 395.091 352.901 394.66 354.446C393.622 358.202 391.38 361.515 388.276 363.875C385.173 366.236 381.38 367.515 377.48 367.515H297.572C295.23 367.516 292.911 367.056 290.748 366.161C288.584 365.266 286.618 363.954 284.962 362.299C283.306 360.645 281.993 358.681 281.097 356.519C280.201 354.357 279.74 352.04 279.741 349.701V255.251C279.74 252.912 280.201 250.595 281.097 248.433C281.993 246.271 283.306 244.307 284.962 242.653C286.618 240.998 288.584 239.686 290.748 238.791C292.911 237.896 295.23 237.436 297.572 237.437H377.48C381.38 237.437 385.173 238.716 388.276 241.076C391.38 243.437 393.622 246.75 394.66 250.506C395.091 252.051 395.308 253.648 395.304 255.251Z"/><path fill="#000" d="M281.03 255.251V349.701C281.031 351.306 280.814 352.905 280.386 354.452C279.957 352.905 279.74 351.306 279.741 349.701V255.251C279.74 253.646 279.957 252.047 280.386 250.5C280.814 252.047 281.031 253.646 281.03 255.251Z" opacity=".1"/><path fill="#E9CCDB" d="M261.911 237.437H157.521C147.674 237.437 139.69 245.413 139.69 255.251V349.675C139.69 359.514 147.674 367.49 157.521 367.49H261.911C271.758 367.49 279.742 359.514 279.742 349.675V255.251C279.742 245.413 271.758 237.437 261.911 237.437Z"/><path fill="#000" d="M395.304 255.251V349.701C395.308 351.304 395.091 352.901 394.66 354.446C394.232 352.9 394.015 351.304 394.016 349.701V255.251C394.015 253.648 394.232 252.052 394.66 250.506C395.091 252.051 395.308 253.648 395.304 255.251Z" opacity=".1"/><path fill="#E9CCDB" d="M517.531 237.437H413.136C403.288 237.437 395.305 245.413 395.305 255.251V349.675C395.305 359.514 403.288 367.49 413.136 367.49H517.531C527.379 367.49 535.362 359.514 535.362 349.675V255.251C535.362 245.413 527.379 237.437 517.531 237.437Z"/><path fill="#000" d="M272.653 377.147H144.717L144.072 365.977C143.363 353.435 159.59 343.024 179.857 343.024H266.93C273.729 343.024 278.974 346.72 278.104 350.892L272.653 377.147Z" opacity=".1"/><path fill="#CAA4BC" d="M272.653 378.435H144.717L144.072 367.264C143.363 354.722 159.59 344.312 179.857 344.312H266.93C273.729 344.312 278.974 348.007 278.104 352.179L272.653 378.435Z"/><path fill="#000" d="M400.853 377.887H528.789L529.433 366.717C530.142 354.175 513.916 343.765 493.649 343.765H406.575C399.783 343.765 394.531 347.46 395.401 351.632L400.853 377.887Z" opacity=".1"/><path fill="#CAA4BC" d="M400.853 379.175H528.789L529.433 368.005C530.142 355.463 513.916 345.052 493.649 345.052H406.575C399.783 345.052 394.531 348.748 395.401 352.92L400.853 379.175Z"/><path fill="#000" d="M294.808 343.765H381.495C383.914 343.765 386.31 344.241 388.545 345.166C390.781 346.091 392.812 347.447 394.522 349.156C396.233 350.865 397.59 352.894 398.516 355.127C399.442 357.361 399.919 359.754 399.919 362.172V373.606H274.586V363.949C274.589 358.593 276.722 353.458 280.514 349.673C284.306 345.888 289.447 343.763 294.808 343.765Z" opacity=".1"/><path fill="#CAA4BC" d="M294.808 345.052H381.495C383.914 345.052 386.31 345.528 388.545 346.453C390.781 347.378 392.812 348.734 394.522 350.444C396.233 352.153 397.59 354.182 398.516 356.415C399.442 358.648 399.919 361.042 399.919 363.459V374.894H274.586V365.236C274.589 359.881 276.722 354.746 280.514 350.961C284.306 347.176 289.447 345.051 294.808 345.052Z"/><path fill="#E9CCDB" d="M153.455 356.544H257.206C261.821 356.544 266.246 358.376 269.509 361.636C272.772 364.896 274.605 369.317 274.605 373.928V397.427H145.741V364.251C145.746 362.209 146.561 360.252 148.006 358.807C149.452 357.363 151.411 356.55 153.455 356.544Z"/><path fill="#000" d="M287.475 356.544H386.07C390.685 356.544 395.11 358.376 398.373 361.636C401.636 364.896 403.47 369.317 403.47 373.928V397.427H271.048V372.962C271.048 368.609 272.779 364.434 275.859 361.355C278.939 358.277 283.117 356.546 287.475 356.544Z" opacity=".1"/><path fill="#000" d="M290.052 356.544H388.648C393.262 356.544 397.688 358.376 400.951 361.636C404.214 364.896 406.047 369.317 406.047 373.928V397.427H273.626V372.962C273.626 368.609 275.356 364.434 278.437 361.355C281.517 358.277 285.695 356.546 290.052 356.544Z" opacity=".1"/><path fill="#E9CCDB" d="M288.763 356.544H387.359C391.973 356.544 396.399 358.376 399.662 361.636C402.925 364.896 404.758 369.317 404.758 373.928V397.427H272.337V372.962C272.337 368.609 274.067 364.434 277.148 361.355C280.228 358.277 284.406 356.546 288.763 356.544Z"/><path fill="#000" d="M408.805 356.544H514.148C518.549 356.544 522.77 358.291 525.882 361.4C528.993 364.509 530.742 368.726 530.742 373.123V397.427H401.897V363.446C401.897 361.616 402.625 359.86 403.92 358.566C405.216 357.272 406.973 356.544 408.805 356.544Z" opacity=".1"/><path fill="#E9CCDB" d="M410.094 356.544H515.436C519.837 356.544 524.058 358.291 527.17 361.4C530.282 364.509 532.03 368.726 532.03 373.123V397.427H403.186V363.446C403.186 362.54 403.364 361.642 403.711 360.805C404.059 359.968 404.567 359.207 405.209 358.566C405.85 357.925 406.612 357.417 407.45 357.07C408.288 356.723 409.187 356.544 410.094 356.544Z"/><path fill="#9C7AA5" d="M147.636 451.831V469.375C147.634 471.722 146.7 473.973 145.039 475.633C143.377 477.293 141.125 478.226 138.775 478.228H132.653C130.304 478.226 128.051 477.293 126.39 475.633C124.728 473.973 123.794 471.722 123.792 469.375V451.831H147.636Z"/><path fill="#9C7AA5" d="M553.277 451.831V469.375C553.275 471.722 552.341 473.973 550.68 475.633C549.019 477.293 546.766 478.226 544.416 478.228H538.294C535.945 478.226 533.692 477.293 532.031 475.633C530.369 473.973 529.435 471.722 529.434 469.375V451.831H553.277Z"/><path fill="#E9CCDB" d="M154.138 336.682C154.138 332.229 152.872 327.868 150.486 324.106C148.101 320.344 144.695 317.337 140.665 315.434C136.635 313.532 132.147 312.813 127.723 313.361C123.3 313.909 119.123 315.701 115.68 318.529C112.237 321.357 109.669 325.104 108.275 329.334C106.881 333.564 106.719 338.103 107.808 342.421C108.896 346.739 111.191 350.66 114.423 353.726C117.656 356.791 121.694 358.877 126.067 359.738V454.728H152.488V345.355C153.581 342.594 154.141 339.651 154.138 336.682Z"/><path fill="#E9CCDB" d="M521.984 336.682C521.984 332.229 523.25 327.868 525.636 324.106C528.021 320.344 531.427 317.337 535.457 315.434C539.487 313.532 543.976 312.813 548.399 313.361C552.822 313.909 556.999 315.701 560.442 318.529C563.885 321.357 566.453 325.104 567.847 329.334C569.241 333.564 569.403 338.103 568.314 342.421C567.226 346.739 564.931 350.66 561.699 353.726C558.466 356.791 554.428 358.877 550.055 359.738V454.728H523.634V345.355C522.541 342.594 521.981 339.651 521.984 336.682Z"/><path fill="#000" d="M154.138 336.682C154.138 332.229 152.872 327.868 150.486 324.106C148.101 320.344 144.695 317.337 140.665 315.434C136.635 313.532 132.147 312.813 127.723 313.361C123.3 313.909 119.123 315.701 115.68 318.529C112.237 321.357 109.669 325.104 108.275 329.334C106.881 333.564 106.719 338.103 107.808 342.421C108.896 346.739 111.191 350.66 114.423 353.726C117.656 356.791 121.694 358.877 126.067 359.738V454.728H152.488V345.355C153.581 342.594 154.141 339.651 154.138 336.682Z" opacity=".1"/><path fill="#000" d="M521.984 336.682C521.984 332.229 523.25 327.868 525.636 324.106C528.021 320.344 531.427 317.337 535.457 315.434C539.487 313.532 543.976 312.813 548.399 313.361C552.822 313.909 556.999 315.701 560.442 318.529C563.885 321.357 566.453 325.104 567.847 329.334C569.241 333.564 569.403 338.103 568.314 342.421C567.226 346.739 564.931 350.66 561.699 353.726C558.466 356.791 554.428 358.877 550.055 359.738V454.728H523.634V345.355C522.541 342.594 521.981 339.651 521.984 336.682Z" opacity=".1"/><path fill="#9C7AA5" d="M537.831 438.31H139.69V456.659H537.831V438.31Z"/><path fill="#000" d="M535.362 397.427H144.085V439.598H535.362V397.427Z" opacity=".1"/><path fill="#CAA4BC" d="M535.362 396.14H144.085V438.31H535.362V396.14Z"/><path fill="#000" d="M553.271 451.831H529.466V457.947H553.271V451.831Z" opacity=".1"/><path fill="#E9CCDB" d="M527.803 338.614C527.802 334.16 529.068 329.797 531.454 326.034C533.84 322.272 537.247 319.264 541.278 317.361C545.309 315.459 549.799 314.74 554.223 315.289C558.647 315.838 562.824 317.632 566.267 320.462C569.71 323.292 572.277 327.041 573.669 331.272C575.061 335.504 575.221 340.043 574.13 344.362C573.039 348.681 570.741 352.601 567.506 355.665C564.27 358.729 560.229 360.812 555.854 361.669V456.66H529.433V347.286C528.344 344.525 527.791 341.582 527.803 338.614Z"/><path fill="#000" d="M147.301 451.831H123.792V457.947H147.301V451.831Z" opacity=".1"/><path fill="#E9CCDB" d="M148.963 338.614C148.963 334.162 147.696 329.801 145.311 326.04C142.926 322.28 139.521 319.273 135.492 317.371C131.463 315.468 126.976 314.749 122.553 315.296C118.131 315.842 113.955 317.633 110.511 320.459C107.068 323.285 104.499 327.031 103.104 331.259C101.708 335.487 101.544 340.025 102.63 344.343C103.715 348.661 106.007 352.582 109.236 355.649C112.466 358.717 116.502 360.805 120.873 361.669V456.659H147.294V347.286C148.397 344.528 148.963 341.584 148.963 338.614Z"/><path fill="#000" d="M523.763 396.14H152.482V397.318H523.763V396.14Z" opacity=".1"/><path fill="#CAA4BC" d="M123.793 348.497C129.665 348.497 134.425 343.741 134.425 337.874C134.425 332.007 129.665 327.25 123.793 327.25C117.92 327.25 113.16 332.007 113.16 337.874C113.16 343.741 117.92 348.497 123.793 348.497Z"/><path fill="#CAA4BC" d="M553.271 348.497C559.143 348.497 563.903 343.741 563.903 337.874C563.903 332.007 559.143 327.25 553.271 327.25C547.398 327.25 542.638 332.007 542.638 337.874C542.638 343.741 547.398 348.497 553.271 348.497Z"/><path fill="#000" d="M236.256 319.917C226.126 317.387 204.738 290.707 204.738 290.707C196.695 285.093 180.295 251.086 180.295 251.086C180.295 251.086 174.07 248.156 168.586 261.329C163.102 274.502 131.21 285.035 121.659 286.509C116.279 287.34 116.801 289.728 118.283 291.66C119.282 292.899 120.608 293.836 122.111 294.364C126.17 295.903 138.769 311.013 138.769 311.013C150.516 318.945 163.546 355.585 167.877 365.159C170.281 370.483 172.955 367.934 174.862 364.618C178.546 358.216 183.59 352.7 189.639 348.458C206.033 336.94 223.606 332.163 224.805 332.143C226.319 332.105 246.386 322.447 236.256 319.917Z" opacity=".1"/><path fill="#323593" d="M101.586 288.537C99.9305 287.909 98.4733 286.851 97.3647 285.472C95.6699 283.303 94.9482 280.612 100.587 279.678C110.537 278.043 143.415 266.28 148.274 251.44C153.133 236.6 159.873 239.922 159.873 239.922C159.873 239.922 179.515 278.307 188.382 284.674C188.382 284.674 212.78 314.825 223.625 317.715C234.471 320.606 214.011 331.422 212.419 331.448C211.13 331.448 192.977 336.798 176.512 349.726C170.358 354.589 165.415 360.81 162.071 367.902C160.292 371.636 157.65 374.501 154.744 368.494C149.517 357.684 133.227 316.344 120.3 307.33C120.3 307.33 105.968 290.25 101.586 288.537Z"/><path fill="#000" d="M101.586 288.537C99.9305 287.909 98.4733 286.851 97.3647 285.472C95.6699 283.303 94.9482 280.612 100.587 279.678C110.537 278.043 143.415 266.28 148.274 251.44C153.133 236.6 159.873 239.922 159.873 239.922C159.873 239.922 179.515 278.307 188.382 284.674C188.382 284.674 212.78 314.825 223.625 317.715C234.471 320.606 214.011 331.422 212.419 331.448C211.13 331.448 192.977 336.798 176.512 349.726C170.358 354.589 165.415 360.81 162.071 367.902C160.292 371.636 157.65 374.501 154.744 368.494C149.517 357.684 133.227 316.344 120.3 307.33C120.3 307.33 105.968 290.25 101.586 288.537Z" opacity=".1"/><path fill="#323593" d="M108.578 287.739C107.042 287.203 105.682 286.257 104.647 285.003C103.081 283.071 102.443 280.599 107.746 279.672C117.148 278.024 148.345 266.795 153.139 253.14C157.933 239.484 164.275 242.439 164.275 242.439C164.275 242.439 182.215 277.206 190.477 282.91C190.477 282.91 213.031 310.092 223.206 312.571C233.382 315.05 213.933 325.235 212.432 325.293C211.24 325.332 194.021 330.444 178.278 342.541C172.444 347.031 167.701 352.78 164.403 359.358C162.67 362.796 160.131 365.455 157.482 360.002C152.72 350.196 137.989 312.642 125.938 304.633C125.938 304.633 112.683 289.265 108.578 287.739Z"/><path fill="#000" d="M144.716 300.029C144.716 300.029 141.34 303.204 157.489 297.119C173.638 291.035 144.716 300.029 144.716 300.029Z" opacity=".1"/><path fill="#000" d="M157.972 315.514C157.972 315.514 160.434 315.868 169.694 312.088C178.954 308.309 157.972 315.514 157.972 315.514Z" opacity=".1"/><path fill="#000" d="M157.16 343.945C157.16 343.945 159.461 343.945 168.702 340.12C177.943 336.296 157.16 343.945 157.16 343.945Z" opacity=".1"/><path fill="#000" d="M534.073 280.296V292.58C531.418 298.066 528.821 305.071 528.821 305.071C521.088 315.127 522.313 348.632 521.804 357.678C521.52 362.699 518.227 361.502 515.359 359.442C509.692 355.406 503.258 352.573 496.452 351.117C477.764 347.029 460.365 348.728 459.257 349.089C457.89 349.54 436.547 348.104 444.719 342.882C452.89 337.661 462.659 309.532 462.659 309.532C467.885 302.502 470.611 270.053 470.611 270.053C470.611 270.053 475.122 265.746 484.692 274.56C493.772 283.013 523.44 281.983 534.073 280.296Z" opacity=".1"/><path fill="#323593" d="M541.104 284.545C542.238 283.684 543.098 282.512 543.578 281.172C544.223 279.163 543.862 277.083 538.752 278.107C529.698 279.923 497.451 281.513 487.914 272.667C478.376 263.821 473.833 268.128 473.833 268.128C473.833 268.128 471.107 300.57 465.881 307.607C465.881 307.607 456.118 335.736 447.94 340.957C439.763 346.179 461.112 347.615 462.479 347.158C463.561 346.797 480.96 345.104 499.674 349.192C506.478 350.649 512.912 353.479 518.581 357.51C521.449 359.571 524.742 360.774 525.026 355.746C525.535 346.733 524.323 313.202 532.043 303.146C532.043 303.146 538.011 287.056 541.104 284.545Z"/><path fill="#000" d="M541.104 284.545C542.238 283.684 543.098 282.512 543.578 281.172C544.223 279.163 543.862 277.083 538.752 278.107C529.698 279.923 497.451 281.513 487.914 272.667C478.376 263.821 473.833 268.128 473.833 268.128C473.833 268.128 471.107 300.57 465.881 307.607C465.881 307.607 456.118 335.736 447.94 340.957C439.763 346.179 461.112 347.615 462.479 347.158C463.561 346.797 480.96 345.104 499.674 349.192C506.478 350.649 512.912 353.479 518.581 357.51C521.449 359.571 524.742 360.774 525.026 355.746C525.535 346.733 524.323 313.202 532.043 303.146C532.043 303.146 538.011 287.056 541.104 284.545Z" opacity=".1"/><path fill="#323593" d="M538.771 285.994C539.849 285.171 540.664 284.053 541.117 282.775C541.761 280.843 541.387 278.912 536.541 279.871C527.938 281.59 497.322 283.09 488.268 274.721C479.214 266.351 474.896 270.413 474.896 270.413C474.896 270.413 472.319 301.214 467.35 307.891C467.35 307.891 458.084 334.603 450.318 339.56C442.553 344.518 462.826 345.876 464.115 345.445C465.146 345.104 481.669 343.513 499.436 347.376C505.896 348.756 512.004 351.444 517.383 355.276C520.109 357.208 523.234 358.373 523.505 353.602C523.988 345.014 522.86 313.209 530.168 303.654C530.168 303.648 535.832 288.376 538.771 285.994Z"/><path fill="#000" d="M516.081 303.751C516.081 303.751 513.826 305.038 503.032 308.74C492.238 312.442 514.309 307.292 516.081 303.751Z" opacity=".1"/><path fill="#000" d="M514.954 315.114C514.954 315.114 508.187 320.651 504.804 321.134C501.421 321.617 513.02 320.522 514.954 315.114Z" opacity=".1"/><path fill="#000" d="M520.334 340.687C520.334 340.687 513.568 346.224 510.185 346.707C506.802 347.19 518.401 346.108 520.334 340.687Z" opacity=".1"/><path fill="url(#paint0_linear)" d="M417.717 345.335C416.761 345.293 415.811 345.158 414.882 344.93C414.817 344.627 414.302 344.421 413.213 344.376H412.994C409.642 343.101 406.636 341.059 404.217 338.414C401.111 335.002 392.321 330.733 392.321 330.733C392.321 330.733 386.109 325.499 382.01 325.074C377.912 324.649 366.583 313.228 356.942 302.656C347.302 292.085 332.403 280.56 332.403 280.56L326.081 273.517C326.081 273.517 318.709 268.269 317.001 265.359C316.067 263.782 313.135 262.971 310.132 262.688C306.91 261.4 301.593 261.4 299.112 261.941C297.598 262.282 293.409 266.241 289.285 270.459L292.675 227C292.721 226.397 292.562 225.797 292.222 225.296C291.883 224.796 291.383 224.425 290.806 224.245L279.4 229.801C278.989 229.999 278.639 230.303 278.384 230.68C278.129 231.058 277.979 231.497 277.95 231.951L274.889 278.603L261.42 288.441C261.114 286.792 260.406 285.244 259.358 283.934C251.806 274.096 240.064 292.761 235.689 300.57C235.483 300.57 235.283 300.635 235.096 300.68C235.014 300.909 234.879 301.117 234.703 301.285C231.373 299.664 228.213 297.717 225.269 295.471C225.062 295.244 224.891 294.988 224.76 294.711C224.115 293.108 221.583 290.353 220.12 288.827C215.673 283.824 209.042 277.122 208.095 276.697C207.592 276.478 205.214 274.656 202.263 272.345C201.812 271.368 201.308 270.416 200.755 269.493C198.654 266.016 195.071 264.986 192.564 264.709C190.245 262.906 188.472 261.561 188.002 261.329C186.397 260.531 182.698 254.762 180.913 251.079C179.128 247.397 166.156 246.92 166.156 246.92C166.057 241.861 167.232 236.858 169.572 232.37C169.707 232.112 169.836 231.861 169.971 231.616C173.025 230.728 175.867 229.229 178.324 227.211C180.78 225.192 182.8 222.695 184.262 219.873C185.723 217.05 186.595 213.96 186.825 210.79C187.055 207.621 186.637 204.437 185.598 201.434C187.261 200.848 189.291 201.106 191.037 200.494C193.383 199.676 195.509 197.783 195.87 195.343C196.027 193.711 195.647 192.073 194.788 190.676C194.001 189.283 193.004 188.021 191.83 186.935C188.646 183.6 184.065 181.546 179.586 180.007C173.909 178.076 167.948 176.589 161.948 176.917C155.949 177.245 149.872 179.55 146.005 184.121C145.32 185.065 144.511 185.914 143.602 186.645C142.223 187.585 140.457 187.74 138.788 187.675C133.285 187.476 127.536 185.306 122.458 187.431C116.356 190.006 114.223 197.436 113.437 203.983C112.618 210.724 112.418 217.581 110.633 224.129C108.848 230.676 105.169 237.076 99.1885 240.327C97.4421 241.274 95.5346 241.937 93.8914 243.057C92.2481 244.178 90.8497 245.916 90.8433 247.899C90.8433 250.603 93.2727 252.592 94.5422 254.981C95.1866 256.198 95.5604 257.588 96.1984 258.786C96.2628 258.908 96.3273 259.024 96.3981 259.14L96.4368 259.204C96.4948 259.295 96.5528 259.385 96.6172 259.475C96.635 259.507 96.6566 259.538 96.6817 259.565L96.8621 259.81C96.8873 259.838 96.911 259.868 96.933 259.9C97.0232 260.003 97.1134 260.106 97.2101 260.202C97.3068 260.299 97.4421 260.421 97.5645 260.518C97.687 260.614 97.7514 260.737 97.8545 260.84C100.619 263.628 105.53 262.05 109.074 263.743C109.75 264.081 110.373 264.514 110.923 265.031C112.109 266.319 113.063 267.909 114.145 269.338L114.21 269.415L114.545 269.84L114.719 270.04C114.796 270.137 114.88 270.233 114.964 270.323C115.048 270.413 115.26 270.645 115.408 270.793L115.698 271.057C115.814 271.186 115.93 271.315 116.053 271.437C118.966 274.334 123.27 275.345 127.382 275.628C129.631 275.777 131.957 275.738 134.039 274.862C134.988 274.457 135.86 273.891 136.616 273.188C137.827 274.135 139.121 274.972 140.483 275.686C143.872 277.901 147.629 279.968 151.174 282.318C154.866 285.827 159.338 290.803 159.396 294.428C159.48 299.238 166.098 308.682 169.063 312.661C169.211 313.453 169.275 313.904 169.275 313.904L182.879 333.92C182.879 333.92 183.897 337.043 189.207 337.217C188.228 343.243 188.563 353.84 193.273 354.948C198.738 356.235 207.631 355.16 208.92 356.763C210.209 358.367 231.416 355.907 231.416 355.907C231.416 355.907 243.203 353.242 251.026 355.592C255.893 356.945 261.08 356.568 265.699 354.523C265.699 354.523 274.154 353.725 275.25 350.422C275.463 350.115 275.606 349.766 275.668 349.398C275.72 349.038 275.815 348.686 275.952 348.349C276.803 346.964 278.124 346.559 277.627 346.25C278.272 345.696 278.407 345.567 276.416 345.232C275.098 345.036 273.755 345.082 272.453 345.368C272.93 344.887 273.4 344.378 273.864 343.842C274.16 343.858 274.457 343.858 274.753 343.842C277.711 344.009 277.505 342.728 280.27 342.039C283.492 341.241 286.714 340.919 290.877 340.436C295.04 339.953 299.396 337.558 301.187 335.285C302.979 333.013 310.506 334.32 312.594 330.476C314.385 327.192 308.05 324.372 304.674 324.63C303.862 324.519 303.036 324.66 302.309 325.036C300.324 326.323 293.203 326.916 290.761 327.07C290.226 326.877 288.073 326.137 285.541 325.493C287.732 321.907 290.799 317.02 293.577 313.08C298.616 305.927 301.613 303.364 301.613 303.364C302.65 301.692 303.957 300.202 305.479 298.954C309.249 308.496 331.494 324.469 342.211 326.317C353.997 328.345 365.571 337.951 365.571 337.951C365.571 337.951 364.501 342.458 364.501 344.389C364.501 345.252 366.641 345.677 369.328 345.889C371.132 347.241 379.89 347.093 383.247 346.533C386.998 345.889 397.605 348.561 406.285 349.108C414.966 349.656 422.963 345.548 417.717 345.335Z"/><path fill="#FFD037" d="M203.623 272.377L202.817 282.601L207.786 293.366L214.81 299.547L222.453 304.053L229.541 308.985L236.63 302.624C236.63 302.624 226.248 295.967 225.32 293.707C224.392 291.447 219.727 286.87 219.727 286.87L213.141 280.509L207.792 275.635L203.623 272.377Z"/><path fill="#000" d="M203.623 272.377L202.817 282.601L207.786 293.366L214.81 299.547L222.453 304.053L229.541 308.985L236.63 302.624C236.63 302.624 226.248 295.967 225.32 293.707C224.392 291.447 219.727 286.87 219.727 286.87L213.141 280.509L207.792 275.635L203.623 272.377Z" opacity=".1"/><path fill="#E2ABB1" d="M171.454 232.685C168.876 237.733 166.698 245.15 169.185 253.513C173.786 268.965 140.058 247.345 140.058 247.345C140.058 247.345 147.327 236.503 149.453 227.142C150.143 224.109 150.291 221.225 149.453 218.92C146.109 209.514 176.023 225.816 176.023 225.816C174.21 227.9 172.675 230.209 171.454 232.685Z"/><path fill="#000" d="M167.168 246.927C167.168 246.927 179.857 247.397 181.584 251.002C183.311 254.608 186.913 260.254 188.485 261.039C190.058 261.825 206.684 275.461 208.095 276.086C209.506 276.71 223.786 291.602 223.786 293.173C223.786 294.744 238.537 303.834 247.952 305.244C257.367 306.654 271.795 323.587 276.036 322.956C280.276 322.325 288.924 325.467 288.924 325.467C288.924 325.467 298.655 324.997 301.007 323.426C303.359 321.855 312.142 324.997 310.106 328.757C308.07 332.517 300.691 331.268 298.964 333.463C297.237 335.659 293.003 338.009 288.924 338.479C284.845 338.949 281.707 339.258 278.568 340.043C275.43 340.829 276.216 342.393 271.48 341.614C266.743 340.835 248.416 308.219 248.416 308.219L228.02 298.974C228.02 298.974 220.332 292.703 219.701 290.662C219.069 288.621 204.325 274.676 204.325 274.676L185.025 260.563L167.168 246.927Z" opacity=".1"/><path fill="#FFD037" d="M168.109 246.927C168.109 246.927 180.797 247.397 182.525 251.002C184.252 254.608 187.86 260.254 189.426 261.039C190.992 261.825 207.625 275.461 209.042 276.086C210.46 276.71 224.727 291.602 224.727 293.173C224.727 294.744 239.478 303.834 248.893 305.244C258.308 306.654 272.736 323.587 276.977 322.956C281.217 322.325 289.865 325.467 289.865 325.467C289.865 325.467 299.596 324.997 301.948 323.426C304.3 321.855 313.09 324.997 311.047 328.757C309.004 332.517 301.632 331.268 299.905 333.463C298.178 335.659 293.944 338.009 289.865 338.479C285.786 338.949 282.622 339.258 279.49 340.043C276.358 340.829 277.138 342.393 272.401 341.614C267.665 340.835 249.338 308.219 249.338 308.219L228.942 298.974C228.942 298.974 221.254 292.703 220.622 290.662C219.991 288.621 205.292 274.676 205.292 274.676L185.959 260.563L168.109 246.927Z"/><path fill="#FFBEC5" d="M234.194 316.949C234.194 316.949 253.236 300.12 254.171 298.871C254.635 298.227 260.66 293.688 266.627 289.213C274.043 283.686 280.994 277.562 287.41 270.903C291.708 266.447 296.309 261.999 297.894 261.645C301.117 260.911 309.294 261.226 310.97 264.046C312.645 266.866 319.863 271.991 319.863 271.991L326.036 278.88C326.036 278.88 340.581 290.166 349.996 300.512C359.41 310.859 370.494 322.042 374.483 322.46C378.472 322.879 384.523 327.997 384.523 327.997C384.523 327.997 393.101 332.182 396.123 335.524C399.145 338.865 404.178 342.11 409.301 342.316C414.424 342.522 406.582 346.501 398.108 345.973C389.634 345.445 379.284 342.837 375.618 343.468C371.951 344.099 361.711 344.196 361.711 342.316C361.711 340.436 362.755 336.045 362.755 336.045C362.755 336.045 351.458 326.665 339.975 324.682C328.491 322.699 303.34 303.989 303.546 295.317C303.546 295.317 299.995 295.001 295.91 301.272C295.91 301.272 292.984 303.783 288.067 310.781C283.15 317.78 277.292 327.811 277.292 327.811C277.292 327.811 268.193 346.192 260.873 346.044C253.552 345.896 245.703 345.052 245.703 345.052L235.972 338.157L235.328 329.787L234.194 316.949Z"/><path fill="#E2ABB1" d="M234.194 316.949C234.194 316.949 253.236 300.12 254.171 298.871C254.635 298.227 260.66 293.688 266.627 289.213C274.043 283.686 280.994 277.562 287.41 270.903C291.708 266.447 296.309 261.999 297.894 261.645C301.117 260.911 309.294 261.226 310.97 264.046C312.645 266.866 319.863 271.991 319.863 271.991L326.036 278.88C326.036 278.88 340.581 290.166 349.996 300.512C359.41 310.859 370.494 322.042 374.483 322.46C378.472 322.879 384.523 327.997 384.523 327.997C384.523 327.997 393.101 332.182 396.123 335.524C399.145 338.865 404.178 342.11 409.301 342.316C414.424 342.522 406.582 346.501 398.108 345.973C389.634 345.445 379.284 342.837 375.618 343.468C371.951 344.099 361.711 344.196 361.711 342.316C361.711 340.436 362.755 336.045 362.755 336.045C362.755 336.045 351.458 326.665 339.975 324.682C328.491 322.699 303.34 303.989 303.546 295.317C303.546 295.317 299.995 295.001 295.91 301.272C295.91 301.272 292.984 303.783 288.067 310.781C283.15 317.78 277.292 327.811 277.292 327.811C277.292 327.811 268.193 346.192 260.873 346.044C253.552 345.896 245.703 345.052 245.703 345.052L235.972 338.157L235.328 329.787L234.194 316.949Z" opacity=".05"/><path fill="#E2ABB1" d="M238.589 317.889C238.589 317.889 257.625 301.066 258.566 299.811C259.507 298.555 283.144 281.204 283.144 281.204C283.144 281.204 299.042 263.338 302.289 262.604C305.537 261.87 313.689 262.185 315.365 265.005C317.04 267.825 324.251 272.95 324.251 272.95L330.425 279.846C330.425 279.846 344.963 291.132 354.378 301.478C363.793 311.824 374.883 323.008 378.865 323.426C382.848 323.845 388.906 328.969 388.906 328.969C388.906 328.969 397.483 333.148 400.505 336.489C403.527 339.831 408.56 343.076 413.683 343.282C418.806 343.488 410.964 347.467 402.49 346.939C394.016 346.411 383.66 343.81 380 344.434C376.339 345.059 366.1 345.194 366.1 343.262C366.1 341.331 367.15 336.992 367.15 336.992C367.15 336.992 355.853 327.592 344.344 325.602C332.835 323.613 307.754 304.929 307.941 296.263C307.941 296.263 304.384 295.948 300.305 302.218C300.305 302.218 297.379 304.729 292.462 311.728C287.545 318.726 281.687 328.763 281.687 328.763C281.687 328.763 272.588 347.125 265.261 346.99C257.934 346.855 250.098 345.999 250.098 345.999L240.367 339.103L239.723 330.734L238.589 317.889Z"/><path fill="#000" d="M299.86 327.682C299.344 327.901 298.842 328.165 298.346 328.429L295.124 330.148C297.931 330.611 300.787 330.695 303.617 330.399C305.189 330.231 307.4 328.899 305.608 327.321C304.184 326.085 301.31 327.051 299.86 327.682Z" opacity=".1"/><path fill="#000" d="M285.135 329.909C286.882 329.562 288.763 329.221 290.394 329.909C290.952 330.178 291.481 330.504 291.972 330.882L294.769 332.897C292.36 333.607 289.882 334.06 287.378 334.249C287.045 334.294 286.707 334.281 286.379 334.21C285.949 334.059 285.559 333.812 285.238 333.489C283.054 331.674 281.578 330.618 285.135 329.909Z" opacity=".1"/><path fill="#000" d="M176.036 225.816C174.219 227.899 172.679 230.208 171.454 232.685C167.619 233.734 163.579 233.775 159.724 232.803C155.869 231.832 152.331 229.882 149.453 227.142C150.143 224.109 150.291 221.225 149.453 218.92C146.122 209.514 176.036 225.816 176.036 225.816Z" opacity=".1"/><path fill="#E2ABB1" d="M165.345 232.878C178.054 232.878 188.357 222.585 188.357 209.887C188.357 197.19 178.054 186.896 165.345 186.896C152.635 186.896 142.333 197.19 142.333 209.887C142.333 222.585 152.635 232.878 165.345 232.878Z"/><path fill="#504F88" d="M168.116 246.927L166.885 248.91L181.829 265.115L188.853 270.021L192.913 264.58L168.116 246.927Z"/><path fill="#504F88" d="M191.115 264.316C191.115 264.316 198.48 263.389 201.883 269.029C203.889 272.286 205.156 275.943 205.595 279.742C205.595 279.742 208.991 282.459 208.682 283.979C208.427 284.953 207.833 285.805 207.006 286.38C207.006 286.38 200.414 282.62 200.362 282.459C200.311 282.298 195.291 276.762 195.291 276.762L191.115 272.377V264.316Z"/><path fill="#000" d="M146.747 241.911C146.747 241.911 135.244 242.825 134.09 250.848C132.937 258.87 132.524 263.441 136.603 268.978C140.683 274.515 149.047 276.819 149.047 276.819C149.047 276.819 161.704 286.747 161.813 292.806C161.923 298.864 172.588 312.455 172.588 312.455C172.588 312.455 192.893 327.501 191.424 332.311C189.955 337.12 189.529 350.808 194.865 352.063C200.201 353.319 208.881 352.269 210.138 353.84C211.394 355.411 232.106 353.003 232.106 353.003C232.106 353.003 243.609 350.389 251.245 352.688C256 354.011 261.068 353.638 265.577 351.632C265.577 351.632 274.47 350.795 274.992 347.241C275.514 343.687 279.503 343.797 275.727 343.166C271.95 342.535 269.553 344.524 266.834 343.584C264.114 342.644 261.814 339.509 255.537 339.612C249.26 339.715 247.804 339.824 247.16 339.715C246.515 339.605 251.136 336.058 248.622 330.315C246.109 324.572 241.308 320.085 241.521 316.865C241.734 313.646 232.106 302.65 232.106 302.65C232.106 302.65 227.505 295.967 221.538 293.771C215.57 291.576 204.383 278.088 204.383 278.088C204.383 278.088 194.801 263.183 189.6 262.385C184.4 261.587 167.355 246.289 167.355 246.289C167.355 246.289 152.901 240.334 146.747 241.911Z" opacity=".1"/><path fill="#FFD037" d="M146.437 242.536C146.437 242.536 134.928 243.469 133.761 251.472C132.595 259.475 132.195 264.065 136.275 269.609C140.354 275.152 148.725 277.444 148.725 277.444C148.725 277.444 161.381 287.372 161.484 293.437C161.587 299.501 172.259 313.08 172.259 313.08C172.259 313.08 192.577 328.132 191.114 332.961C189.652 337.79 189.226 351.458 194.556 352.714C199.885 353.969 208.578 352.926 209.828 354.491C211.079 356.055 231.797 353.654 231.797 353.654C231.797 353.654 243.306 351.046 250.942 353.345C255.694 354.665 260.758 354.287 265.261 352.276C265.261 352.276 274.154 351.439 274.676 347.891C278.718 346.329 279.187 344.441 275.411 343.816C271.634 343.192 282.401 342.465 279.681 341.519C276.962 340.573 291.253 325.055 284.976 325.165C278.7 325.274 263.855 327 263.211 326.897C307.12 299.611 260.526 309.011 258.019 303.261C255.512 297.512 241.42 316.318 241.652 313.08C241.884 309.841 231.803 303.261 231.803 303.261C231.803 303.261 227.202 296.579 221.241 294.383C215.28 292.188 204.087 278.706 204.087 278.706C204.087 278.706 194.498 263.801 189.304 262.997C184.11 262.192 167.052 246.933 167.052 246.933C167.052 246.933 152.585 240.958 146.437 242.536Z"/><path fill="#000" d="M221.003 332.961C220.294 334.539 220.139 336.592 221.357 337.816C222.129 338.446 223.025 338.907 223.987 339.168C225.952 339.934 227.853 341.279 228.497 343.288C228.615 343.844 228.834 344.375 229.142 344.853C229.469 345.206 229.875 345.478 230.328 345.645C235.933 348.173 242.029 349.431 248.178 349.327C246.142 347.372 243.56 346.079 240.774 345.619C238.557 345.258 236.211 345.426 234.162 344.505C232.113 343.584 230.746 341.827 229.406 340.101C228.911 339.532 228.524 338.878 228.265 338.17C227.782 336.618 228.555 334.899 228.111 333.341C227.853 332.446 225.701 329.246 224.786 329.047C223.387 328.77 221.473 331.912 221.003 332.961Z" opacity=".1"/><path fill="#000" d="M302.206 294.171C303.494 293.752 310.048 292.529 308.07 290.044C306.265 287.765 303.604 293.688 302.206 294.171Z" opacity=".1"/><path fill="#CBE3FF" d="M278.665 230.168L289.794 224.753L285.927 280.56L274.206 278.236L277.247 232.247C277.281 231.807 277.43 231.384 277.679 231.019C277.928 230.654 278.268 230.361 278.665 230.168Z"/><path fill="#C8BFCA" d="M289.794 224.753L285.928 280.56C286.355 280.56 286.766 280.398 287.079 280.108C287.392 279.818 287.584 279.421 287.616 278.996L291.644 227.457C291.689 226.864 291.53 226.273 291.194 225.781C290.858 225.29 290.364 224.927 289.794 224.753Z"/><path fill="#F1F1F2" d="M274.244 277.92L238.93 303.854C238.636 304.065 238.389 304.336 238.206 304.649C238.023 304.962 237.908 305.31 237.869 305.671C237.83 306.031 237.868 306.395 237.98 306.74C238.092 307.085 238.275 307.402 238.518 307.672L241.972 311.599L286.656 278.236L275.778 277.457C275.228 277.422 274.683 277.587 274.244 277.92Z"/><path fill="#7E7A98" d="M273.336 280.554L249.55 297.19L252.863 300.776L280.611 281.049L273.336 280.554Z"/><path fill="#C8BFCA" d="M241.985 311.599L286.656 278.236C287.01 278.973 287.097 279.81 286.901 280.604C286.706 281.397 286.241 282.099 285.586 282.588L246.348 311.992C245.702 312.48 244.897 312.711 244.09 312.638C243.283 312.566 242.533 312.195 241.985 311.599Z"/><path fill="#E2ABB1" d="M234.291 302.631C234.291 302.631 249.885 271.154 259.094 283.193C268.303 295.233 244.969 308.303 244.969 308.303L234.291 302.631Z"/><path fill="#000" d="M151.161 250.905C148.071 251.709 145.239 253.292 142.937 255.503C140.636 257.714 138.941 260.478 138.015 263.531C137.003 266.988 137.074 270.78 140.502 273.317C148.351 279.112 159.435 283.193 164.565 292.703C167.775 298.922 169.993 305.604 171.138 312.507L184.426 332.098C184.426 332.098 186.443 338.369 199.892 333.463C213.341 328.557 220.694 326.04 220.694 326.04C220.694 326.04 231.12 320.452 235.779 318.411C236.436 318.077 237.134 317.83 237.854 317.677C239.42 317.677 250.633 308.09 251.149 306.77C251.664 305.45 239.813 299.965 235.077 301.156C235.077 301.156 234.4 303.989 225.507 303.57C216.614 303.152 213.263 306.918 213.263 306.918C213.263 306.918 208.869 305.347 206.046 305.502C203.223 305.656 198.1 302.927 194.279 303.255C194.279 303.255 196.212 299.392 193.705 296.173C191.199 292.954 188.892 293.244 187.848 289.432C187.248 287.256 185.27 280.335 183.665 274.772C181.574 267.365 177.406 260.71 171.653 255.593C167.903 252.29 163.444 249.605 158.971 249.766C156.333 249.851 153.713 250.234 151.161 250.905Z" opacity=".1"/><path fill="#000" d="M151.438 249.335C148.346 250.14 145.512 251.724 143.207 253.935C140.902 256.147 139.203 258.912 138.273 261.966C137.267 265.424 137.332 269.209 140.766 271.746C148.609 277.541 159.699 281.622 164.823 291.132C168.04 297.349 170.265 304.031 171.415 310.936L184.703 330.534C184.703 330.534 186.713 336.805 200.169 331.892C213.624 326.98 220.971 324.476 220.971 324.476C220.971 324.476 231.397 318.881 236.05 316.846C236.706 316.51 237.404 316.263 238.125 316.112C239.697 316.112 250.91 306.526 251.419 305.206C251.928 303.886 240.09 298.401 235.354 299.592C235.354 299.592 234.677 302.424 225.784 302.006C216.891 301.588 213.54 305.347 213.54 305.347C213.54 305.347 209.145 303.783 206.323 303.937C203.5 304.092 198.371 301.362 194.556 301.691C194.556 301.691 196.489 297.828 193.976 294.608C191.463 291.389 189.169 291.685 188.118 287.868C187.525 285.698 185.541 278.777 183.942 273.208C181.849 265.802 177.682 259.147 171.93 254.028C168.173 250.725 163.721 248.04 159.248 248.234C156.612 248.305 153.991 248.674 151.438 249.335Z" opacity=".1"/><path fill="#FFD037" d="M151.161 249.966C148.071 250.769 145.239 252.352 142.937 254.563C140.636 256.774 138.941 259.538 138.015 262.591C137.003 266.048 137.074 269.84 140.502 272.377C148.351 278.172 159.435 282.253 164.565 291.763C167.775 297.982 169.993 304.664 171.138 311.567L184.426 331.158C184.426 331.158 186.443 337.429 199.892 332.517C213.341 327.605 220.694 325.1 220.694 325.1C220.694 325.1 231.12 319.505 235.779 317.471C236.435 317.134 237.133 316.887 237.854 316.737C239.42 316.737 250.633 307.15 251.149 305.83C251.664 304.51 239.813 299.025 235.077 300.216C235.077 300.216 234.4 303.049 225.507 302.631C216.614 302.212 213.263 305.972 213.263 305.972C213.263 305.972 208.869 304.407 206.046 304.562C203.223 304.717 198.1 301.987 194.279 302.315C194.279 302.315 196.212 298.452 193.705 295.233C191.199 292.014 188.892 292.31 187.848 288.499C187.248 286.322 185.27 279.401 183.665 273.832C181.574 266.427 177.406 259.774 171.653 254.659C167.903 251.35 163.444 248.671 158.971 248.865C156.335 248.938 153.715 249.307 151.161 249.966Z"/><path fill="#000" d="M192.404 201.473C194.691 200.674 196.773 198.82 197.127 196.425C197.275 194.821 196.898 193.212 196.051 191.841C193.19 186.69 187.422 183.948 181.874 182.029C176.325 180.11 170.513 178.675 164.655 179.003C158.797 179.331 152.862 181.578 149.073 186.085C148.405 187.01 147.616 187.842 146.727 188.557C145.38 189.478 143.66 189.626 142.029 189.568C136.655 189.369 131.042 187.244 126.087 189.33C120.132 191.828 118.044 199.123 117.271 205.535C116.472 212.128 116.279 218.843 114.532 225.255C112.786 231.668 109.203 237.932 103.364 241.113C101.657 242.04 99.7944 242.69 98.2091 243.785C96.6239 244.879 95.2384 246.585 95.2319 248.53C95.2319 251.176 97.6034 253.12 98.8407 255.457C99.7428 257.164 100.091 259.204 101.451 260.569C104.151 263.299 108.939 261.754 112.406 263.415C115.486 264.896 116.813 268.521 119.236 270.935C122.085 273.774 126.286 274.766 130.295 275.043C132.492 275.191 134.767 275.152 136.79 274.296C140.824 272.59 142.964 267.986 143.202 263.621C143.441 259.256 142.184 254.968 141.269 250.687C140.966 249.277 140.708 247.77 141.269 246.424C141.748 245.39 142.493 244.502 143.428 243.849C148.19 240.089 154.976 238.37 157.708 232.956C159.545 229.318 158.997 224.998 159.435 220.948C159.603 219.474 159.97 217.909 161.066 216.899C162.406 215.669 164.41 215.611 166.221 215.45C171.591 214.909 176.659 212.711 180.72 209.16C182.692 207.441 183.884 205.297 185.598 203.423C187.313 201.55 190.09 202.264 192.404 201.473Z" opacity=".1"/><path fill="#6B6564" d="M191.759 200.848C194.047 200.043 196.128 198.189 196.483 195.794C196.628 194.191 196.248 192.585 195.4 191.216C192.545 186.066 186.771 183.323 181.223 181.398C175.674 179.473 169.855 178.05 164.004 178.378C158.153 178.707 152.211 180.954 148.416 185.461C147.75 186.386 146.963 187.217 146.076 187.933C144.73 188.854 143.009 189.008 141.379 188.944C136.004 188.751 130.391 186.626 125.429 188.705C119.475 191.21 117.387 198.504 116.614 204.911C115.821 211.51 115.628 218.218 113.881 224.631C112.135 231.043 108.546 237.314 102.707 240.488C100.999 241.422 99.1371 242.066 97.5518 243.167C95.9666 244.268 94.5811 245.967 94.5811 247.905C94.5811 250.551 96.9525 252.502 98.1898 254.839C99.0855 256.539 99.44 258.586 100.767 259.951C103.474 262.675 108.262 261.129 111.723 262.797C114.809 264.278 116.137 267.903 118.56 270.317C121.402 273.15 125.603 274.148 129.618 274.418C131.809 274.573 134.09 274.528 136.114 273.671C140.148 271.965 142.287 267.368 142.526 263.003C142.764 258.638 141.501 254.344 140.592 250.069C140.296 248.659 140.038 247.152 140.56 245.806C141.043 244.773 141.79 243.885 142.725 243.231C147.481 239.478 154.267 237.759 156.999 232.344C158.836 228.706 158.288 224.386 158.733 220.337C158.9 218.856 159.268 217.291 160.357 216.287C161.703 215.051 163.708 214.999 165.512 214.838C170.884 214.293 175.953 212.092 180.018 208.542C181.99 206.829 183.175 204.679 184.896 202.805C186.617 200.932 189.465 201.659 191.759 200.848Z"/><g opacity=".1"><path fill="#000" d="M110.17 260.891C106.947 259.346 102.565 260.582 99.7944 258.548C100.055 259.054 100.387 259.52 100.78 259.932C103.487 262.655 108.275 261.11 111.735 262.778C112.521 263.161 113.232 263.679 113.836 264.31C112.917 262.884 111.657 261.709 110.17 260.891Z" opacity=".1"/><path fill="#000" d="M195.419 191.216C194.775 190.055 193.977 188.985 193.048 188.036C193.349 188.449 193.627 188.879 193.879 189.324C194.726 190.692 195.103 192.299 194.955 193.901C194.601 196.296 192.519 198.15 190.232 198.955C187.944 199.76 185.076 199 183.369 200.887C181.661 202.773 180.456 204.911 178.484 206.623C174.421 210.173 169.354 212.374 163.985 212.92C162.167 213.087 160.163 213.132 158.829 214.368C157.734 215.373 157.366 216.944 157.205 218.418C156.741 222.461 157.308 226.788 155.472 230.425C152.74 235.834 145.954 237.553 141.192 241.312C140.258 241.967 139.514 242.855 139.033 243.888C138.504 245.227 138.762 246.74 139.065 248.15C139.98 252.425 141.243 256.713 140.998 261.084C140.753 265.456 138.614 270.046 134.586 271.753C132.556 272.609 130.282 272.647 128.084 272.499C124.076 272.229 119.874 271.212 117.026 268.398L116.987 268.353C117.471 269.04 118.01 269.686 118.598 270.285C121.44 273.117 125.642 274.115 129.657 274.386C131.848 274.54 134.129 274.495 136.152 273.639C140.186 271.933 142.326 267.336 142.564 262.971C142.803 258.606 141.54 254.311 140.631 250.036C140.335 248.626 140.077 247.12 140.599 245.774C141.082 244.741 141.829 243.853 142.764 243.199C147.52 239.445 154.305 237.726 157.038 232.312C158.874 228.674 158.327 224.354 158.771 220.304C158.939 218.824 159.306 217.259 160.402 216.255C161.742 215.019 163.746 214.967 165.557 214.806C170.929 214.261 175.998 212.06 180.063 208.51C182.035 206.797 183.22 204.647 184.941 202.773C186.662 200.9 189.497 201.659 191.811 200.842C194.124 200.024 196.18 198.183 196.534 195.788C196.668 194.183 196.277 192.579 195.419 191.216Z" opacity=".1"/></g><path fill="#323593" d="M649.926 506.35C676.477 506.35 698 503.05 698 498.978C698 494.907 676.477 491.606 649.926 491.606C623.376 491.606 601.853 494.907 601.853 498.978C601.853 503.05 623.376 506.35 649.926 506.35Z" opacity=".1"/><path fill="#323593" d="M68.7658 532C83.5001 532 95.4446 530.17 95.4446 527.912C95.4446 525.654 83.5001 523.823 68.7658 523.823C54.0314 523.823 42.0869 525.654 42.0869 527.912C42.0869 530.17 54.0314 532 68.7658 532Z" opacity=".1"/><path fill="#323593" d="M60.2141 359.294C60.2141 359.294 64.8088 365.301 58.094 374.366C51.3792 383.431 45.8501 391.105 48.0669 396.745C48.0669 396.745 58.21 379.902 66.4585 379.671C74.707 379.439 69.3197 369.421 60.2141 359.294Z"/><path fill="#000" d="M60.2144 359.294C60.616 359.872 60.9328 360.505 61.1552 361.174C69.204 370.625 73.4958 379.445 65.7564 379.671C58.5454 379.877 49.8973 392.753 47.8223 396.005C47.8932 396.256 47.9769 396.507 48.0671 396.745C48.0671 396.745 58.2103 379.902 66.4588 379.671C74.7073 379.439 69.32 369.421 60.2144 359.294Z" opacity=".1"/><path fill="#FFD037" d="M68.7595 366.949C68.7595 369.06 68.521 370.773 68.2311 370.773C67.9411 370.773 67.7026 369.06 67.7026 366.949C67.7026 364.837 67.9991 365.828 68.2891 365.828C68.579 365.828 68.7595 364.83 68.7595 366.949Z"/><path fill="#FFD037" d="M71.6915 369.473C69.8356 370.483 68.2181 371.095 68.0763 370.837C67.9346 370.58 69.3265 369.55 71.1889 368.539C73.0512 367.528 72.3101 368.269 72.4777 368.539C72.6452 368.809 73.5539 368.462 71.6915 369.473Z"/><path fill="#323593" d="M35.9263 359.294C35.9263 359.294 31.3317 365.301 38.0465 374.366C44.7613 383.431 50.2904 391.105 48.0672 396.745C48.0672 396.745 37.9305 379.902 29.6755 379.671C21.4205 379.439 26.8465 369.421 35.9263 359.294Z"/><path fill="#000" d="M35.9263 359.294C35.5248 359.872 35.208 360.505 34.9855 361.174C26.9367 370.625 22.6449 379.445 30.3844 379.671C37.5954 379.877 46.2435 392.753 48.312 396.005C48.2469 396.257 48.1651 396.504 48.0672 396.745C48.0672 396.745 37.9305 379.902 29.6755 379.671C21.4205 379.439 26.8465 369.421 35.9263 359.294Z" opacity=".1"/><path fill="#FFD037" d="M27.3813 366.949C27.3813 369.06 27.6198 370.773 27.9098 370.773C28.1998 370.773 28.4382 369.06 28.4382 366.949C28.4382 364.837 28.1418 365.828 27.8518 365.828C27.5618 365.828 27.3813 364.83 27.3813 366.949Z"/><path fill="#FFD037" d="M24.4489 369.473C26.3049 370.483 27.9223 371.095 28.0641 370.837C28.2059 370.58 26.8139 369.55 24.9516 368.539C23.0892 367.528 23.8303 368.269 23.6627 368.539C23.4952 368.809 22.5866 368.462 24.4489 369.473Z"/><path fill="#323593" d="M48.0735 442.701C74.6237 442.701 96.147 439.401 96.147 435.33C96.147 431.258 74.6237 427.958 48.0735 427.958C21.5232 427.958 0 431.258 0 435.33C0 439.401 21.5232 442.701 48.0735 442.701Z" opacity=".1"/><path fill="#65617D" d="M72.8125 388.652L72.5805 390.526L72.2583 393.178L72.1229 394.279L71.8007 396.932L71.6654 398.039L71.3432 400.685L67.6636 430.823C67.3349 433.514 62.9335 435.606 57.63 435.606H38.5102C33.2002 435.606 28.8439 433.514 28.483 430.823L24.797 400.692L24.4748 398.046L24.3394 396.938L24.0108 394.286L23.8819 393.185L23.5597 390.532L23.3277 388.659C23.1408 387.139 25.5187 385.851 28.5281 385.851H67.6185C70.6085 385.845 72.9993 387.133 72.8125 388.652Z"/><path fill="#9D9CB5" d="M72.5873 390.526L72.2651 393.172H23.8823L23.5601 390.526H72.5873Z"/><path fill="#9D9CB5" d="M72.1297 394.279L71.8075 396.932H24.3462L24.0176 394.279H72.1297Z"/><path fill="#9D9CB5" d="M71.6657 398.033L71.3435 400.685H24.7973L24.4751 398.033H71.6657Z"/><defs><linearGradient id="paint0_linear" x1="255.112" x2="255.112" y1="357.298" y2="176.853" gradientUnits="userSpaceOnUse"><stop stop-color="gray" stop-opacity=".25"/><stop offset=".54" stop-color="gray" stop-opacity=".12"/><stop offset="1" stop-color="gray" stop-opacity=".1"/></linearGradient></defs></svg>